<?xml version="1.0" encoding="UTF-8" standalone="no"?>
<!-- Created with Inkscape (http://www.inkscape.org/) -->

<svg
   xmlns:dc="http://purl.org/dc/elements/1.1/"
   xmlns:cc="http://creativecommons.org/ns#"
   xmlns:rdf="http://www.w3.org/1999/02/22-rdf-syntax-ns#"
   xmlns:svg="http://www.w3.org/2000/svg"
   xmlns="http://www.w3.org/2000/svg"
   xmlns:sodipodi="http://sodipodi.sourceforge.net/DTD/sodipodi-0.dtd"
   xmlns:inkscape="http://www.inkscape.org/namespaces/inkscape"
   width="250"
   height="250"
   viewBox="0 0 250 250.00001"
   id="svg4222"
   version="1.1"
   inkscape:version="0.91 r13725"
   sodipodi:docname="cake.svg"
   inkscape:export-filename="/Users/joepavitt/Documents/Development/qdg/public/images/cake.png"
   inkscape:export-xdpi="90"
   inkscape:export-ydpi="90">
  <defs
     id="defs4224" />
  <sodipodi:namedview
     id="base"
     pagecolor="#ffffff"
     bordercolor="#666666"
     borderopacity="1.0"
     inkscape:pageopacity="0.0"
     inkscape:pageshadow="2"
     inkscape:zoom="1.979899"
     inkscape:cx="92.933647"
     inkscape:cy="124.05319"
     inkscape:document-units="px"
     inkscape:current-layer="layer1"
     showgrid="false"
     inkscape:window-width="1440"
     inkscape:window-height="878"
     inkscape:window-x="0"
     inkscape:window-y="0"
     inkscape:window-maximized="1"
     units="px"
     fit-margin-top="0"
     fit-margin-left="0"
     fit-margin-right="0"
     fit-margin-bottom="0" />
  <metadata
     id="metadata4227">
    <rdf:RDF>
      <cc:Work
         rdf:about="">
        <dc:format>image/svg+xml</dc:format>
        <dc:type
           rdf:resource="http://purl.org/dc/dcmitype/StillImage" />
        <dc:title></dc:title>
      </cc:Work>
    </rdf:RDF>
  </metadata>
  <g
     inkscape:label="Layer 1"
     inkscape:groupmode="layer"
     id="layer1"
     transform="translate(-83.571436,-122.21934)">
    <path
       style="fill:#ffffff;fill-opacity:0.94117647;fill-rule:nonzero;stroke:none;stroke-width:5;stroke-miterlimit:4;stroke-dasharray:none;stroke-opacity:1"
       d="m 324.92859,201.15738 -230.968791,20.56459 0,33.58724 c 1.114222,-0.10044 13.732201,-1.18708 20.698691,0.76998 7.28386,2.04623 13.65944,12.76581 21.1637,11.91311 7.50427,-0.85271 3.64301,-12.16161 15.54241,-14.16466 11.89939,-2.00304 23.82294,11.45697 35.43,11.91959 11.60706,0.46262 35.25055,-29.153 51.20383,-28.89813 15.95329,0.25487 18.79517,19.36785 31.56928,19.1717 12.77412,-0.19615 17.63092,-22.36858 33.29958,-21.64819 15.66866,0.72039 21.6655,9.49717 21.6655,9.49717 l 0.3958,13.84238 0,-56.55478 z m 0,56.55478 c 0,0 -9.14758,-11.72374 -20.27477,-11.65788 -11.12718,0.0659 -23.8053,22.35812 -37.3463,22.06562 -13.54102,-0.2925 -19.33048,-20.3374 -31.75746,-20.66408 -12.42699,-0.32668 -34.57269,28.53436 -49.90827,29.64432 -15.3356,1.10997 -22.31101,-15.32389 -31.61687,-13.05076 -9.30585,2.27312 -6.32428,16.20266 -14.99519,17.79611 -8.6709,1.59346 -18.01542,-12.37629 -25.89606,-14.38743 -7.88065,-2.01113 -19.173871,0.14275 -19.173871,0.14275 l 0,41.92079 230.968791,-20.56458 0,-31.24486 z"
       id="rect4783"
       inkscape:connector-curvature="0" />
    <rect
       style="fill:#ffffff;fill-opacity:0.94117647;fill-rule:nonzero;stroke:none;stroke-width:5;stroke-miterlimit:4;stroke-dasharray:none;stroke-opacity:1"
       id="rect4785"
       width="232.07739"
       height="35.889153"
       x="93.614571"
       y="332.83746"
       transform="matrix(0.99522843,-0.09757239,0,1,0,0)" />
    <path
       style="fill:#ffffff;fill-opacity:0.94117647;fill-rule:evenodd;stroke:none;stroke-width:1px;stroke-linecap:butt;stroke-linejoin:miter;stroke-opacity:1"
       d="M 218.78554,172.29354 93.168805,211.67728 325.0646,192.69375 277.96609,176.99346 c -5.4991,9.35267 -18.45776,16.93806 -35.76625,15.24393 -14.12969,-1.73914 -25.40007,-13.39133 -24.5818,-18.13785 0.10631,-0.6164 0.52805,-1.21387 1.1675,-1.806 z"
       id="path4787"
       inkscape:connector-curvature="0" />
    <path
       style="fill:#ffffff;fill-opacity:0.94117647;fill-rule:evenodd;stroke:none;stroke-width:1px;stroke-linecap:butt;stroke-linejoin:miter;stroke-opacity:1"
       d="m 240.88587,125.22115 c 0,0 -11.93591,5.33099 -14.20997,13.06117 -1.02316,3.47804 0.95877,7.65176 5.48762,10.04546 3.58531,1.89499 12.94569,3.14566 11.5187,7.14487 -2.62006,6.86788 -17.69314,9.61895 -18.34911,13.2436 -0.37623,2.07886 -0.72885,8.06797 3.87442,11.1934 3.42286,2.32399 11.9892,3.87186 17.21529,3.64724 16.61264,-0.97155 24.60304,-6.49789 28.278,-14.43562 3.67497,-7.93773 -5.46524,-19.15054 -5.46524,-19.15054 0,0 -6.75554,-6.13963 -14.04615,-7.33301 -12.47412,-2.04185 -19.78667,-3.49568 -20.75068,-5.00252 -2.49397,-3.89833 6.44712,-12.41405 6.44712,-12.41405 z"
       id="path4792"
       inkscape:connector-curvature="0"
       sodipodi:nodetypes="csscssczcssc" />
  </g>
</svg>
